# xmcd
#
# Track frame offsets:
#	150
#	17778
#	29778
#	49798
#	65176
#	79128
#	93754
#	110857
#	128934
#	143484
#	159461
#	177690
#	193593
#	208071
#	225774
#	241378
#
# Disc length: 3400 seconds
#
# Revision: 0
# Processed by: cddbd v1.5.1PL2 Copyright (c) Steve Scherf et al.
# Submitted via: EasyCDDAExtractor 9.0.0.1
#
DISCID=e30d4610
DTITLE=Varios Artistas - Música pa'Planchar
DYEAR=1900
DGENRE=Balada
TTITLE0=Yo no te pido la luna
TTITLE1=Caliente, caliente
TTITLE2=Juntos
TTITLE3=Lady Lady
TTITLE4=Dame un beso
TTITLE5=Soy rebelde
TTITLE6=Fotografía
TTITLE7=Y volveré
TTITLE8=Eres
TTITLE9=Un rayo de sol
TTITLE10=Para que no me olvides
TTITLE11=Otro ocupa mi lugar
TTITLE12=Perdóname
TTITLE13=Te he querido tanto
TTITLE14=Bella
TTITLE15=Mi gran noche
EXTD=
EXTT0=
EXTT1=
EXTT2=
EXTT3=
EXTT4=
EXTT5=
EXTT6=
EXTT7=
EXTT8=
EXTT9=
EXTT10=
EXTT11=
EXTT12=
EXTT13=
EXTT14=
EXTT15=
PLAYORDER=
